<?xml version="1.0" standalone="no"?>
<!DOCTYPE svg PUBLIC "-//W3C//DTD SVG 20010904//EN"
 "http://www.w3.org/TR/2001/REC-SVG-20010904/DTD/svg10.dtd">
<svg version="1.0" xmlns="http://www.w3.org/2000/svg"
 width="800.000000pt" height="271.000000pt" viewBox="0 0 800.000000 271.000000"
 preserveAspectRatio="xMidYMid meet">

<g transform="translate(0.000000,271.000000) scale(0.100000,-0.100000)"
fill="#000000" stroke="none">
<path d="M4724 2487 c-108 -63 -211 -139 -347 -260 l-78 -70 -67 31 c-98 45
-148 54 -259 50 -109 -5 -175 -25 -258 -80 -151 -100 -235 -256 -235 -438 0
-94 16 -165 57 -248 l27 -53 -45 -45 c-50 -51 -49 -52 -100 48 -73 143 -89
310 -45 477 34 130 16 190 -68 231 -42 20 -52 20 -1398 20 -1525 0 -1391 8
-1368 -78 7 -26 19 -59 27 -74 20 -40 81 -97 138 -126 45 -24 64 -27 197 -32
l147 -5 28 -55 c30 -60 97 -118 161 -140 20 -7 101 -15 179 -17 l143 -5 10
-37 c14 -51 64 -107 124 -139 48 -25 61 -27 203 -30 l153 -4 10 -37 c16 -60
62 -115 121 -145 49 -24 62 -26 190 -26 l138 0 16 -56 c21 -73 82 -136 147
-152 30 -8 139 -12 296 -12 l249 0 -1 -22 c-1 -32 27 -34 71 -4 60 41 106 36
189 -20 91 -62 190 -106 300 -135 125 -33 330 -34 454 -1 95 25 265 104 324
151 l39 31 352 0 c385 0 411 3 468 58 33 31 61 83 72 129 l7 33 136 0 c150 0
198 13 255 68 28 27 67 102 67 128 0 11 27 14 134 14 156 0 214 14 276 68 40
33 80 97 80 125 0 12 28 16 143 19 100 4 156 10 189 23 65 23 141 93 162 149
l17 44 147 4 c142 3 149 4 208 35 91 47 145 121 159 215 7 44 5 47 -16 53 -13
3 -635 4 -1381 3 l-1357 -3 -28 -21 c-15 -11 -38 -36 -51 -55 -27 -39 -26 -88
3 -199 24 -93 17 -281 -15 -365 -36 -93 -76 -158 -145 -233 -173 -187 -440
-254 -687 -172 -72 24 -168 79 -168 95 0 7 19 29 42 49 l41 37 46 -24 c119
-65 288 -80 413 -38 183 61 311 205 354 398 26 120 11 223 -52 349 l-26 52 47
48 c72 74 187 220 250 318 73 114 70 148 -11 103z m-54 -106 c0 -5 -16 -33
-36 -62 -93 -140 -247 -299 -407 -423 -90 -70 -127 -89 -127 -68 0 12 49 79
124 172 98 120 188 205 381 358 40 31 65 40 65 23z m-565 -385 c19 -8 35 -17
35 -20 0 -3 -25 -40 -56 -83 -51 -71 -59 -78 -93 -81 -45 -3 -81 -40 -81 -85
0 -29 -9 -38 -81 -90 -44 -31 -84 -57 -89 -57 -7 0 -20 43 -34 112 -7 34 11
122 35 169 22 45 89 105 143 130 51 23 171 26 221 5z m176 -178 c23 -70 16
-168 -16 -233 -46 -95 -159 -165 -265 -165 -36 0 -140 26 -140 36 0 2 25 40
56 84 43 62 61 80 79 80 58 0 105 47 105 104 0 19 10 32 38 50 20 13 55 38 77
55 22 17 43 31 46 31 3 0 12 -19 20 -42z m-1227 -13 c-1 -16 -2 -54 -3 -83
l-1 -53 -887 3 c-831 3 -891 4 -928 21 -61 28 -125 97 -125 137 0 7 296 9 973
8 l972 -3 -1 -30z m3836 17 c0 -38 -51 -92 -120 -125 l-45 -22 -887 -3 -886
-3 -4 78 c-2 43 -2 81 0 86 2 4 439 7 973 7 922 0 969 -1 969 -18z m-2986
-219 c-45 -71 -146 -196 -219 -272 -122 -128 -355 -315 -363 -292 -9 28 196
281 309 381 193 171 322 257 273 183z m-840 -30 c4 -27 10 -63 13 -81 l5 -33
-658 3 -659 3 -49 24 c-33 16 -57 38 -77 69 -16 25 -29 50 -29 54 0 4 326 8
724 8 l724 0 6 -47z m3326 29 c0 -31 -66 -98 -119 -120 -49 -22 -59 -22 -696
-22 -356 -1 -649 1 -651 3 -4 3 14 120 21 145 4 9 157 12 725 12 690 0 720 -1
720 -18z m-3290 -196 c0 -2 16 -38 35 -80 l35 -77 -468 3 c-413 3 -470 5 -497
20 -41 23 -81 68 -89 100 l-6 28 482 3 c266 1 489 3 496 5 6 1 12 0 12 -2z
m2776 -3 c21 -8 17 -25 -15 -72 -54 -82 -49 -81 -567 -81 -266 0 -454 4 -454
9 0 17 59 134 72 143 14 9 940 10 964 1z m-2645 -237 c59 -65 60 -69 39 -104
l-20 -32 -267 0 c-151 0 -284 5 -305 10 -40 11 -94 66 -104 105 -14 55 -20 53
315 55 l310 1 32 -35z m2199 -5 c-19 -66 -55 -104 -117 -120 -46 -13 -643 -15
-643 -3 0 4 15 23 33 42 18 19 46 52 61 73 l28 37 323 0 324 0 -9 -29z"/>
<path d="M2024 573 c-12 -2 -34 -18 -50 -34 -25 -26 -29 -38 -29 -84 0 -43 5
-59 24 -79 54 -57 159 -55 200 3 26 36 28 116 5 150 -28 40 -86 57 -150 44z
m77 -54 c60 -31 32 -139 -36 -139 -24 0 -65 46 -65 73 0 32 36 77 61 77 11 0
29 -5 40 -11z"/>
<path d="M4443 565 c-18 -8 -42 -29 -53 -47 -75 -124 98 -252 201 -149 100
100 -16 254 -148 196z m98 -54 c48 -39 18 -131 -43 -131 -27 0 -68 45 -68 75
0 30 41 75 68 75 11 0 30 -8 43 -19z"/>
<path d="M5075 566 c-41 -18 -65 -57 -65 -106 0 -83 46 -126 133 -124 44 0 54
5 83 37 96 104 -20 250 -151 193z m102 -58 c33 -30 31 -80 -3 -107 -33 -26
-58 -27 -84 -1 -42 42 -13 130 42 130 12 0 32 -10 45 -22z"/>
<path d="M1480 454 l0 -116 75 4 c66 3 77 7 104 32 38 37 48 81 28 129 -21 48
-60 67 -142 67 l-65 0 0 -116z m140 46 c43 -43 10 -110 -55 -110 l-35 0 0 65
0 65 35 0 c22 0 43 -8 55 -20z"/>
<path d="M1740 455 l0 -115 25 0 c23 0 25 4 25 45 0 25 4 45 10 45 5 0 21 -20
36 -45 21 -37 31 -45 55 -45 36 0 36 5 3 54 -23 34 -25 41 -12 50 17 12 38 49
38 66 0 6 -11 22 -25 35 -21 22 -33 25 -90 25 l-65 0 0 -115z m115 55 c10 -16
-15 -40 -41 -40 -19 0 -24 5 -24 25 0 21 5 25 29 25 17 0 33 -5 36 -10z"/>
<path d="M2240 454 l0 -115 28 3 c27 3 27 4 25 71 -1 37 1 67 5 67 4 0 25 -31
48 -68 34 -57 45 -67 71 -70 19 -2 32 2 36 11 3 7 4 58 3 113 l-1 99 -27 3
c-27 3 -27 3 -30 -70 l-3 -73 -44 73 c-40 67 -46 72 -77 72 l-34 0 0 -116z"/>
<path d="M2500 455 l0 -115 80 0 c79 0 80 0 80 25 0 24 -3 25 -56 25 -52 0
-55 1 -52 23 3 19 10 22 51 25 42 3 47 5 47 28 0 22 -4 24 -50 24 -37 0 -50 4
-50 14 0 11 15 16 53 18 45 3 52 6 55 26 3 21 1 22 -77 22 l-81 0 0 -115z"/>
<path d="M2790 455 l0 -115 25 0 c23 0 25 4 25 45 l0 45 50 0 c47 0 50 2 50
25 0 23 -3 25 -50 25 -43 0 -50 3 -50 20 0 17 7 20 50 20 47 0 50 2 50 25 0
24 -2 25 -75 25 l-75 0 0 -115z"/>
<path d="M2980 455 l0 -115 80 0 c79 0 80 0 80 25 0 24 -3 25 -56 25 -52 0
-55 1 -52 23 3 19 10 22 51 25 42 3 47 5 47 28 0 22 -4 24 -50 24 -37 0 -50 4
-50 14 0 11 15 16 53 18 45 3 52 6 55 26 3 21 1 22 -77 22 l-81 0 0 -115z"/>
<path d="M3180 456 l0 -116 65 0 c106 0 155 37 155 117 0 33 -7 50 -29 75 -28
31 -33 33 -110 36 l-81 4 0 -116z m142 47 c22 -20 23 -70 1 -95 -9 -10 -30
-18 -50 -18 l-33 0 0 65 0 65 32 0 c17 0 40 -7 50 -17z"/>
<path d="M3440 455 l0 -116 83 3 c74 3 82 5 82 23 0 17 -8 20 -52 23 -49 3
-53 5 -53 28 0 22 4 24 45 24 41 0 45 2 45 25 0 23 -4 25 -45 25 -33 0 -45 4
-45 15 0 11 12 15 50 15 47 0 50 2 50 25 0 25 -1 25 -80 25 l-80 0 0 -115z"/>
<path d="M3640 455 l0 -115 30 0 c29 0 30 2 30 45 0 25 4 45 9 45 5 0 20 -19
33 -42 19 -35 29 -44 56 -46 17 -2 32 -1 32 3 0 3 -12 24 -26 46 l-26 41 21
22 c12 13 21 36 21 54 0 45 -30 62 -112 62 l-68 0 0 -115z m126 53 c8 -13 -22
-38 -48 -38 -13 0 -18 8 -18 25 0 21 5 25 29 25 17 0 33 -5 37 -12z"/>
<path d="M3890 464 c-25 -58 -46 -110 -48 -115 -2 -5 11 -9 28 -9 23 0 33 5
37 20 4 17 14 20 53 20 40 0 50 -4 55 -20 4 -14 15 -20 36 -20 16 0 29 4 29 8
0 5 -20 56 -43 113 -40 96 -46 104 -73 107 -28 3 -31 -1 -74 -104z m100 -30
c0 -2 -11 -4 -25 -4 -28 0 -32 18 -14 52 11 20 12 20 25 -12 8 -18 14 -34 14
-36z"/>
<path d="M4064 555 c-9 -22 4 -35 37 -35 l29 0 0 -90 0 -90 30 0 30 0 0 89 0
90 33 3 c24 2 33 8 35 26 3 21 1 22 -93 22 -74 0 -97 -3 -101 -15z"/>
<path d="M4280 455 l0 -115 30 0 30 0 0 115 0 115 -30 0 -30 0 0 -115z"/>
<path d="M4670 455 l0 -115 30 0 29 0 3 70 3 71 41 -68 c37 -63 43 -68 77 -71
l38 -3 -3 113 -3 113 -27 3 -28 3 0 -73 -1 -73 -45 73 c-43 66 -49 72 -80 72
l-34 0 0 -115z"/>
<path d="M5300 455 l0 -115 30 0 c29 0 30 2 30 45 l0 45 45 0 c41 0 45 2 45
25 0 23 -4 25 -45 25 -38 0 -45 3 -45 20 0 17 7 20 45 20 41 0 45 2 45 25 0
24 -2 25 -75 25 l-75 0 0 -115z"/>
<path d="M5580 455 l0 -115 25 0 25 0 0 115 0 115 -25 0 -25 0 0 -115z"/>
<path d="M5680 455 l0 -115 30 0 30 0 0 72 0 72 43 -69 c40 -64 47 -70 80 -73
l37 -3 0 115 0 116 -30 0 -29 0 -3 -72 -3 -73 -43 73 c-40 67 -45 72 -77 72
l-35 0 0 -115z"/>
<path d="M5950 454 l0 -116 74 4 c62 3 79 7 101 28 61 57 51 156 -19 185 -20
8 -63 15 -96 15 l-60 0 0 -116z m140 46 c23 -23 25 -42 9 -73 -16 -30 -28 -37
-66 -37 l-33 0 0 65 0 65 35 0 c22 0 43 -8 55 -20z"/>
<path d="M6200 455 l0 -115 30 0 30 0 0 115 0 115 -30 0 -30 0 0 -115z"/>
<path d="M6376 561 c-3 -5 -26 -57 -50 -115 l-45 -106 33 0 c25 0 35 5 39 20
8 29 89 29 108 -1 10 -14 22 -20 41 -17 l26 3 -46 113 c-43 104 -48 112 -73
112 -15 0 -30 -4 -33 -9z m49 -103 c6 -25 5 -28 -19 -28 -29 0 -31 7 -14 45
13 29 23 23 33 -17z"/>
</g>
</svg>
